<?xml version="1.0" encoding="UTF-8" ?>
<!DOCTYPE svg PUBLIC "-//W3C//DTD SVG 1.1//EN" "http://www.w3.org/Graphics/SVG/1.1/DTD/svg11.dtd">
<svg width="1000pt" height="1000pt" viewBox="0 0 1000 1000" version="1.1" xmlns="http://www.w3.org/2000/svg">
<g id="#2b4040ff">
<path fill="#2b4040" opacity="1.00" d=" M 487.58 3.83 C 536.01 0.33 585.13 8.04 630.31 25.77 C 692.83 50.13 747.23 92.80 789.61 144.45 C 836.87 201.87 870.00 270.24 889.35 341.87 C 910.16 419.24 915.07 500.72 904.83 580.13 C 893.20 669.39 861.55 756.66 809.12 830.15 C 770.09 884.79 719.08 931.67 658.70 961.66 C 617.20 982.38 571.41 994.68 525.03 996.65 C 465.22 999.51 404.99 984.99 352.41 956.54 C 296.06 926.34 248.38 881.42 211.43 829.51 C 166.10 765.77 136.32 691.58 121.75 614.89 C 112.75 567.55 109.44 519.14 111.69 471.01 C 115.31 391.91 134.18 313.24 168.99 242.00 C 197.78 183.14 237.68 129.25 288.07 87.11 C 315.68 64.10 346.36 44.64 379.40 30.41 C 413.63 15.58 450.35 6.43 487.58 3.83 M 442.04 165.89 C 441.96 247.42 441.99 328.96 442.08 410.49 C 512.20 357.19 582.07 303.56 652.09 250.15 C 644.78 246.34 636.87 243.92 629.32 240.67 C 602.35 229.93 575.40 219.12 548.42 208.42 C 541.38 205.51 534.59 202.01 527.36 199.56 C 509.95 192.54 492.53 185.52 474.93 178.97 C 464.08 174.33 452.98 170.31 442.04 165.89 M 270.67 339.62 C 266.73 346.14 261.23 352.02 259.74 359.73 C 256.96 372.39 252.01 384.41 248.62 396.90 C 243.43 412.78 242.13 429.53 239.93 445.99 C 238.33 460.30 235.68 474.56 235.98 489.01 C 236.14 498.66 235.58 508.33 236.63 517.95 C 236.67 527.00 238.05 535.95 239.42 544.88 C 244.52 575.73 251.90 606.48 265.03 635.00 C 273.90 654.08 284.13 672.56 295.90 690.01 C 300.17 682.51 304.07 674.80 308.36 667.32 C 309.80 664.77 311.22 662.06 311.22 659.07 C 311.23 581.37 311.22 503.66 311.22 425.96 C 311.10 376.77 311.47 327.57 311.04 278.38 C 297.35 298.63 284.16 319.23 270.67 339.62 M 561.03 403.90 C 548.99 406.20 537.52 410.81 527.05 417.15 C 526.86 454.73 526.91 492.31 527.03 529.89 C 539.14 541.27 553.34 550.10 567.78 558.19 C 575.74 562.36 584.63 564.18 593.16 566.82 C 604.61 570.37 616.27 573.19 627.90 576.08 C 631.86 577.07 635.89 577.93 639.99 577.96 C 656.69 577.99 673.71 578.57 689.95 574.00 C 722.28 566.42 754.78 553.42 778.26 529.15 C 775.69 515.06 771.38 501.19 764.21 488.74 C 755.41 473.26 743.33 459.64 728.89 449.21 C 700.54 428.68 667.86 413.76 633.34 407.50 C 620.94 405.92 608.52 404.38 596.06 403.33 C 591.55 403.06 587.01 403.22 582.53 402.59 C 578.68 402.10 574.88 401.11 570.98 401.09 C 567.54 401.50 564.44 403.30 561.03 403.90 M 444.39 453.65 C 444.41 460.24 443.80 466.87 444.87 473.41 C 446.24 480.94 444.81 488.65 446.42 496.16 C 446.91 506.43 447.28 516.84 445.72 527.04 C 445.28 531.02 445.78 535.04 445.34 539.02 C 443.94 549.67 443.41 560.43 441.74 571.05 C 439.26 585.08 435.09 598.92 428.60 611.63 C 423.32 622.14 415.34 630.90 407.40 639.44 C 400.52 647.19 393.13 654.46 385.90 661.88 C 380.88 666.86 376.12 672.12 370.79 676.77 C 351.87 691.87 333.94 708.15 315.69 724.05 C 337.00 755.58 365.18 782.71 398.33 801.56 C 428.42 818.93 462.20 828.97 496.40 834.25 C 496.49 699.94 496.45 565.63 496.42 431.31 C 478.97 438.50 461.72 446.17 444.39 453.65 M 659.05 608.87 C 650.07 610.00 641.00 609.77 632.05 608.44 C 621.85 607.75 612.16 604.27 602.14 602.58 C 589.70 600.39 577.88 595.83 565.87 592.10 C 560.50 590.33 554.92 588.99 550.05 586.01 C 546.28 583.74 541.64 583.55 537.99 581.04 C 534.51 578.77 530.81 576.88 527.00 575.25 C 526.94 611.15 526.85 647.05 527.05 682.95 C 537.48 680.37 547.62 676.76 558.00 673.99 C 571.37 670.03 585.25 668.45 598.99 666.42 C 606.59 665.02 614.35 665.31 621.99 664.26 C 632.33 663.75 642.73 663.72 653.02 665.05 C 661.06 665.30 668.92 667.21 676.95 667.50 C 686.38 667.74 695.51 670.39 704.63 672.58 C 723.01 677.68 741.75 682.05 759.21 689.94 C 765.49 680.24 771.14 669.97 775.15 659.11 C 778.65 643.50 783.92 628.09 784.23 611.94 C 785.49 595.97 784.86 579.94 785.00 563.94 C 746.63 586.99 704.23 605.75 659.05 608.87 M 610.35 679.46 C 581.62 689.75 554.03 702.96 526.95 716.96 C 526.94 755.10 526.96 793.24 526.94 831.37 C 540.82 833.64 555.05 832.93 568.96 831.25 C 584.75 829.38 600.24 825.45 615.14 819.94 C 644.06 808.80 672.16 794.81 696.65 775.65 C 708.96 765.75 722.50 756.80 731.70 743.69 C 738.22 734.37 743.84 724.07 746.28 712.90 C 747.42 709.76 743.64 708.66 741.62 707.37 C 721.11 697.12 699.93 687.30 677.11 683.64 C 658.15 681.20 639.03 680.47 620.05 678.24 C 616.76 677.83 613.43 678.27 610.35 679.46 Z" />
</g>
<g id="#090f0dff">
<path fill="#090f0d" opacity="1.00" d=" M 442.04 165.89 C 452.98 170.31 464.08 174.33 474.93 178.97 C 492.53 185.52 509.95 192.54 527.36 199.56 C 534.59 202.01 541.38 205.51 548.42 208.42 C 575.40 219.12 602.35 229.93 629.32 240.67 C 636.87 243.92 644.78 246.34 652.09 250.15 C 582.07 303.56 512.20 357.19 442.08 410.49 C 441.99 328.96 441.96 247.42 442.04 165.89 Z" />
<path fill="#090f0d" opacity="1.00" d=" M 270.67 339.62 C 284.16 319.23 297.35 298.63 311.04 278.38 C 311.47 327.57 311.10 376.77 311.22 425.96 C 311.22 503.66 311.23 581.37 311.22 659.07 C 311.22 662.06 309.80 664.77 308.36 667.32 C 304.07 674.80 300.17 682.51 295.90 690.01 C 284.13 672.56 273.90 654.08 265.03 635.00 C 251.90 606.48 244.52 575.73 239.42 544.88 C 238.05 535.95 236.67 527.00 236.63 517.95 C 235.58 508.33 236.14 498.66 235.98 489.01 C 235.68 474.56 238.33 460.30 239.93 445.99 C 242.13 429.53 243.43 412.78 248.62 396.90 C 252.01 384.41 256.96 372.39 259.74 359.73 C 261.23 352.02 266.73 346.14 270.67 339.62 Z" />
<path fill="#090f0d" opacity="1.00" d=" M 561.03 403.90 C 564.44 403.30 567.54 401.50 570.98 401.09 C 574.88 401.11 578.68 402.10 582.53 402.59 C 587.01 403.22 591.55 403.06 596.06 403.33 C 608.52 404.38 620.94 405.92 633.34 407.50 C 667.86 413.76 700.54 428.68 728.89 449.21 C 743.33 459.64 755.41 473.26 764.21 488.74 C 771.38 501.19 775.69 515.06 778.26 529.15 C 754.78 553.42 722.28 566.42 689.95 574.00 C 673.71 578.57 656.69 577.99 639.99 577.96 C 635.89 577.93 631.86 577.07 627.90 576.08 C 616.27 573.19 604.61 570.37 593.16 566.82 C 584.63 564.18 575.74 562.36 567.78 558.19 C 553.34 550.10 539.14 541.27 527.03 529.89 C 526.91 492.31 526.86 454.73 527.05 417.15 C 537.52 410.81 548.99 406.20 561.03 403.90 Z" />
<path fill="#090f0d" opacity="1.00" d=" M 444.39 453.65 C 461.72 446.17 478.97 438.50 496.42 431.31 C 496.45 565.63 496.49 699.94 496.40 834.25 C 462.20 828.97 428.42 818.93 398.33 801.56 C 365.18 782.71 337.00 755.58 315.69 724.05 C 333.94 708.15 351.87 691.87 370.79 676.77 C 376.12 672.12 380.88 666.86 385.90 661.88 C 393.13 654.46 400.52 647.19 407.40 639.44 C 415.34 630.90 423.32 622.14 428.60 611.63 C 435.09 598.92 439.26 585.08 441.74 571.05 C 443.41 560.43 443.94 549.67 445.34 539.02 C 445.78 535.04 445.28 531.02 445.72 527.04 C 447.28 516.84 446.91 506.43 446.42 496.16 C 444.81 488.65 446.24 480.94 444.87 473.41 C 443.80 466.87 444.41 460.24 444.39 453.65 Z" />
<path fill="#090f0d" opacity="1.00" d=" M 659.05 608.87 C 704.23 605.75 746.63 586.99 785.00 563.94 C 784.86 579.94 785.49 595.97 784.23 611.94 C 783.92 628.09 778.65 643.50 775.15 659.11 C 771.14 669.97 765.49 680.24 759.21 689.94 C 741.75 682.05 723.01 677.68 704.63 672.58 C 695.51 670.39 686.38 667.74 676.95 667.50 C 668.92 667.21 661.06 665.30 653.02 665.05 C 642.73 663.72 632.33 663.75 621.99 664.26 C 614.35 665.31 606.59 665.02 598.99 666.42 C 585.25 668.45 571.37 670.03 558.00 673.99 C 547.62 676.76 537.48 680.37 527.05 682.95 C 526.85 647.05 526.94 611.15 527.00 575.25 C 530.81 576.88 534.51 578.77 537.99 581.04 C 541.64 583.55 546.28 583.74 550.05 586.01 C 554.92 588.99 560.50 590.33 565.87 592.10 C 577.88 595.83 589.70 600.39 602.14 602.58 C 612.16 604.27 621.85 607.75 632.05 608.44 C 641.00 609.77 650.07 610.00 659.05 608.87 Z" />
<path fill="#090f0d" opacity="1.00" d=" M 610.35 679.46 C 613.43 678.27 616.76 677.83 620.05 678.24 C 639.03 680.47 658.15 681.20 677.11 683.64 C 699.93 687.30 721.11 697.12 741.62 707.37 C 743.64 708.66 747.42 709.76 746.28 712.90 C 743.84 724.07 738.22 734.37 731.70 743.69 C 722.50 756.80 708.96 765.75 696.65 775.65 C 672.16 794.81 644.06 808.80 615.14 819.94 C 600.24 825.45 584.75 829.38 568.96 831.25 C 555.05 832.93 540.82 833.64 526.94 831.37 C 526.96 793.24 526.94 755.10 526.95 716.96 C 554.03 702.96 581.62 689.75 610.35 679.46 Z" />
</g>
</svg>
