<?xml version="1.0" encoding="UTF-8" ?>
<!DOCTYPE svg PUBLIC "-//W3C//DTD SVG 1.1//EN" "http://www.w3.org/Graphics/SVG/1.1/DTD/svg11.dtd">
<svg width="790pt" height="685pt" viewBox="0 0 790 685" version="1.1" xmlns="http://www.w3.org/2000/svg">
<g id="#aca6a6ff">
<path fill="#aca6a6" opacity="1.00" d=" M 709.45 77.71 C 716.89 74.39 725.32 71.67 733.50 73.68 C 738.63 74.89 741.82 79.96 742.10 85.01 C 742.92 95.91 739.08 106.53 734.18 116.09 C 725.82 131.97 714.19 145.84 702.00 158.90 C 671.32 191.35 635.21 218.14 597.60 241.99 C 615.77 242.02 633.93 241.98 652.10 242.01 C 651.14 243.70 650.17 245.39 649.19 247.07 C 630.79 247.06 612.40 247.05 594.01 247.07 C 574.14 285.37 554.84 323.99 533.79 361.66 C 515.31 394.44 496.05 426.97 472.65 456.53 C 459.04 473.75 444.16 489.95 428.24 505.04 C 410.95 521.37 392.45 536.57 372.09 548.93 C 348.01 563.52 320.61 574.51 292.04 574.00 C 285.64 573.85 279.04 573.72 273.01 571.33 C 269.63 570.06 269.16 565.24 272.75 563.95 C 281.11 565.61 289.40 567.99 298.01 567.93 C 323.99 568.36 348.84 557.44 369.49 542.32 C 390.18 527.17 408.16 508.47 423.11 487.66 C 432.79 474.16 441.07 459.74 449.40 445.39 C 470.03 409.45 489.80 373.02 509.73 336.69 C 526.14 306.81 542.58 276.94 558.99 247.06 C 547.67 247.06 536.36 247.06 525.05 247.06 C 525.87 245.31 526.75 243.59 527.76 241.93 C 539.23 242.10 550.70 241.93 562.18 242.02 C 591.33 192.95 625.96 146.73 667.87 107.79 C 680.54 96.29 693.87 85.08 709.45 77.71 M 695.43 94.38 C 681.20 107.62 668.90 122.82 657.64 138.62 C 636.54 169.83 618.40 202.91 600.17 235.84 C 639.57 208.49 675.67 176.35 707.25 140.25 C 717.32 128.44 727.32 116.28 734.23 102.27 C 737.03 96.15 739.76 89.07 737.51 82.34 C 735.46 76.95 728.72 76.44 723.86 77.41 C 712.79 79.71 703.69 87.06 695.43 94.38 Z" />
</g>
<g id="#ca3737ff">
<path fill="#ca3737" opacity="1.00" d=" M 105.08 156.98 C 162.70 156.06 220.31 155.14 277.93 154.22 C 306.44 153.45 335.39 154.43 363.04 162.04 C 379.57 166.63 395.72 173.86 408.54 185.47 C 422.58 197.75 433.70 213.78 438.43 231.95 C 444.43 254.97 441.85 280.39 430.19 301.24 C 423.31 313.42 414.34 324.65 402.95 332.89 C 396.52 337.62 389.21 340.92 381.91 344.07 C 365.62 350.90 348.79 356.34 331.89 361.46 C 346.85 368.17 361.67 375.46 375.00 385.10 C 383.42 391.19 391.28 398.30 397.07 407.00 C 404.93 418.69 409.89 432.05 413.65 445.55 C 417.54 459.42 419.40 473.75 423.11 487.66 C 408.16 508.47 390.18 527.17 369.49 542.32 C 363.87 525.73 361.24 508.35 358.59 491.09 C 354.75 468.21 350.72 445.24 343.55 423.13 C 338.54 407.46 329.53 392.75 316.37 382.66 C 307.59 375.64 296.80 371.71 285.91 369.40 C 261.41 364.47 236.04 365.35 211.49 369.51 C 209.07 399.29 210.08 429.18 210.15 459.02 C 210.45 477.68 210.60 496.37 212.06 514.99 C 213.19 527.20 215.98 540.18 224.60 549.44 C 232.16 557.38 243.39 560.23 253.94 561.35 C 260.20 562.24 266.85 561.20 272.75 563.95 C 269.16 565.24 269.63 570.06 273.01 571.33 C 269.53 573.75 265.13 573.93 261.05 574.01 C 208.37 573.99 155.68 574.00 103.00 574.00 C 99.33 573.92 95.41 573.76 92.17 571.83 C 89.30 570.25 89.01 565.60 91.83 563.83 C 96.42 561.15 101.99 562.25 107.04 561.81 C 117.08 561.14 128.24 560.20 136.02 553.07 C 146.03 543.62 150.65 529.84 152.23 516.46 C 155.41 490.76 153.91 464.82 153.91 439.00 C 153.34 395.65 154.03 352.30 153.94 308.95 C 153.89 282.82 153.70 256.67 152.17 230.58 C 151.27 217.67 150.11 204.54 145.52 192.33 C 143.34 186.51 139.87 180.78 134.21 177.80 C 124.90 172.78 114.36 170.72 104.06 168.82 C 100.87 168.14 97.37 168.20 94.53 166.43 C 92.03 164.91 91.52 160.66 94.23 159.10 C 97.47 157.16 101.42 157.13 105.08 156.98 M 213.16 173.56 C 211.82 201.02 210.92 228.49 210.11 255.97 C 209.43 288.61 208.15 321.35 211.45 353.90 C 235.34 353.46 259.27 352.32 282.96 349.06 C 297.43 347.02 312.06 344.11 325.06 337.16 C 343.03 327.65 358.28 312.64 367.38 294.40 C 377.18 274.26 378.49 250.48 372.64 229.00 C 368.05 212.82 358.79 197.94 346.28 186.70 C 329.65 172.45 307.28 167.37 285.90 166.29 C 261.45 165.10 237.03 168.52 213.16 173.56 Z" />
<path fill="#ca3737" opacity="1.00" d=" M 372.09 548.93 C 392.45 536.57 410.95 521.37 428.24 505.04 C 433.29 519.73 439.82 534.79 451.93 545.07 C 463.49 555.23 478.67 560.63 493.90 561.71 C 497.35 562.03 501.14 561.80 504.15 563.84 C 506.92 565.68 507.20 570.50 504.29 572.35 C 501.83 573.90 498.81 573.98 495.99 574.01 C 472.33 574.00 448.66 573.76 425.02 572.56 C 414.93 571.92 404.79 571.38 394.82 569.62 C 390.87 568.88 386.72 568.09 383.52 565.50 C 378.11 561.29 374.86 555.04 372.09 548.93 Z" />
</g>
</svg>
